<?xml version="1.0" encoding="UTF-8" standalone="no"?>
<!-- Created with Inkscape (http://www.inkscape.org/) -->

<svg
   version="1.1"
   id="svg934"
   width="250"
   height="189"
   viewBox="0 0 250 189"
   sodipodi:docname="Openarena.svg"
   inkscape:version="1.1.2 (0a00cf5339, 2022-02-04)"
   xmlns:inkscape="http://www.inkscape.org/namespaces/inkscape"
   xmlns:sodipodi="http://sodipodi.sourceforge.net/DTD/sodipodi-0.dtd"
   xmlns="http://www.w3.org/2000/svg"
   xmlns:svg="http://www.w3.org/2000/svg">
  <defs
     id="defs938" />
  <sodipodi:namedview
     id="namedview936"
     pagecolor="#ffffff"
     bordercolor="#666666"
     borderopacity="1.0"
     inkscape:pageshadow="2"
     inkscape:pageopacity="0.0"
     inkscape:pagecheckerboard="0"
     showgrid="false"
     inkscape:zoom="2.1216931"
     inkscape:cx="38.177057"
     inkscape:cy="80.831671"
     inkscape:window-width="960"
     inkscape:window-height="780"
     inkscape:window-x="1232"
     inkscape:window-y="128"
     inkscape:window-maximized="0"
     inkscape:current-layer="g940" />
  <g
     inkscape:groupmode="layer"
     inkscape:label="Image"
     id="g940">
    <path
       style="fill:#ffffff;fill-opacity:1;stroke-width:0.999999"
       d="m 69.235617,176.57536 c 0,-0.20193 1.728432,-1.51094 3.840959,-2.90895 2.112529,-1.39799 4.346805,-3.82029 4.96506,-5.38288 2.982622,-7.53827 14.243599,-46.45167 13.697944,-47.33456 -0.342106,-0.55354 -1.776416,-1.00644 -3.187353,-1.00644 -4.249088,0 -26.267556,-4.76705 -34.816598,-7.53788 C 34.608832,106.20547 18.872411,96.031337 14.177828,86.8292 11.606501,81.788983 11.634464,74.041343 14.242438,68.9293 23.266675,51.240339 58.497352,37.686961 105.2356,33.923885 c 7.42499,-0.597815 13.78653,-1.400661 14.13675,-1.784101 0.35023,-0.38344 1.86368,-4.972159 3.36324,-10.197153 1.49955,-5.224994 3.04549,-9.847469 3.4354,-10.272166 0.38992,-0.424699 1.98369,3.711548 3.5417,9.191659 1.55802,5.480109 3.12601,10.438323 3.48441,11.018253 0.35843,0.579929 6.4762,1.514087 13.59507,2.075908 33.10811,2.612891 61.0864,10.358738 77.33479,21.410304 16.14915,10.984068 19.86566,22.742812 11.05908,34.990082 -9.11841,12.680949 -35.84783,24.307039 -65.9505,28.685479 -4.67499,0.67998 -8.64001,1.33827 -8.81115,1.46285 -0.17114,0.1246 2.92172,10.96149 6.87305,24.082 7.07932,23.50711 7.24955,23.91754 11.6579,28.10547 l 4.47369,4.24999 -14.84673,-0.0317 -14.84673,-0.0317 2.67248,-1.99527 c 7.51703,-5.61215 7.78777,-1.60792 -2.53159,-37.44132 -5.06847,-17.59999 -13.24863,-46.264857 -18.17813,-63.699707 -4.92951,-17.43485 -9.23991,-31.384835 -9.57866,-30.999966 -0.33874,0.384909 -5.68237,18.699783 -11.87473,40.699759 -6.19236,21.999984 -14.22832,50.527954 -17.857689,63.395494 l -6.598844,23.39554 2.419313,1.60444 c 7.704529,5.10948 7.82535,5.03496 -8.222111,5.07116 -8.112494,0.0184 -14.749989,-0.13193 -14.749989,-0.33384 z M 99.120389,99.69255 C 104.08292,84.183135 118.20186,36.575564 117.92196,36.29566 117.18797,35.56167 91.582287,38.088137 80.376048,40.000247 47.427915,45.622156 22.576822,57.626999 17.755981,70.250188 c -2.804215,7.342731 0.537518,12.159197 12.691345,18.292138 12.896808,6.507853 45.50268,13.853694 63.46072,14.297184 3.861975,0.0954 4.249824,-0.13879 5.212343,-3.14696 z m 81.615151,0.22437 C 218.98206,93.751677 240.21542,81.47334 233.86557,69.194102 231.44407,64.511446 223.04624,57.58148 214.93865,53.575446 196.24471,44.338601 174.76138,39.410753 140.53972,36.509815 l -6.19584,-0.525215 1.29162,4.229003 c 0.71039,2.325952 5.29851,17.437069 10.19584,33.580263 l 8.90422,29.351264 7,-0.64692 c 3.84999,-0.3558 12.39999,-1.51738 18.99998,-2.58129 z m -59.33305,15.39811 -4.27879,-8.62747 4.21553,-9.872506 c 2.31854,-5.429872 4.52189,-9.872495 4.89635,-9.872495 0.37444,0 2.57781,4.442623 4.89634,9.872495 l 4.21554,9.872506 -4.2788,8.62747 c -2.35334,4.74513 -4.52823,8.62749 -4.83308,8.62749 -0.30487,0 -2.47976,-3.88236 -4.83309,-8.62749 z"
       id="path1042" />
  </g>
</svg>
