<?xml version="1.0" encoding="UTF-8" standalone="no"?>
<!-- Generator: Adobe Illustrator 23.0.1, SVG Export Plug-In . SVG Version: 6.00 Build 0)  -->

<svg
   version="1.1"
   id="Layer_1"
   x="0px"
   y="0px"
   viewBox="0 0 1024 1024"
   style="enable-background:new 0 0 1024 1024;"
   xml:space="preserve"
   sodipodi:docname="idfe_logo01.svg"
   inkscape:version="1.1.2 (0a00cf5339, 2022-02-04)"
   xmlns:inkscape="http://www.inkscape.org/namespaces/inkscape"
   xmlns:sodipodi="http://sodipodi.sourceforge.net/DTD/sodipodi-0.dtd"
   xmlns="http://www.w3.org/2000/svg"
   xmlns:svg="http://www.w3.org/2000/svg"><defs
   id="defs17" /><sodipodi:namedview
   id="namedview15"
   pagecolor="#ffffff"
   bordercolor="#666666"
   borderopacity="1.0"
   inkscape:pageshadow="2"
   inkscape:pageopacity="0.0"
   inkscape:pagecheckerboard="0"
   showgrid="false"
   inkscape:zoom="0.81933594"
   inkscape:cx="512"
   inkscape:cy="511.38975"
   inkscape:window-width="1050"
   inkscape:window-height="749"
   inkscape:window-x="715"
   inkscape:window-y="103"
   inkscape:window-maximized="0"
   inkscape:current-layer="Layer_1" />
<style
   type="text/css"
   id="style2">
	.st0{fill:#1A1A1A;}
</style>
<g
   id="g12"
   style="fill:#000000;fill-opacity:1;stroke-width:1">
	<g
   id="g6"
   style="fill:#000000;fill-opacity:1;stroke-width:1">
		<path
   class="st0"
   d="m 506.9,393.2 c -1.5,-0.4 -5.1,2.9 -6.3,5.3 -3.4,6.9 -6.8,13.9 -8.7,21.2 -4.8,17.8 2.3,32.2 12.9,46.4 9.6,12.8 21.6,13.2 36.5,11.3 -9.4,-26.6 -18.4,-52.2 -27.7,-77.7 -1.1,-2.8 -4.1,-5.7 -6.7,-6.5 z"
   id="path4"
   style="fill:#000000;fill-opacity:1;stroke-width:1" />
	</g>
	<g
   id="g10"
   style="fill:#000000;fill-opacity:1;stroke-width:1">
		<path
   class="st0"
   d="m 607.8,393.1 h -87.9 c 0,0.3 3.6,3.6 4.9,6.5 2.5,5.4 4.1,11.3 6.1,16.9 h 67.5 c 4.4,0 8,3.6 8,8 V 599 c 0,4.4 -3.6,8 -8,8 H 546 c 3.5,-7.3 4.9,-16 5.3,-27.2 5.1,-0.3 19.7,-0.9 26.8,-5.7 24.3,-16.3 21.3,-40.4 -9.3,-69.3 -13.9,-13.1 -33.6,-17.1 -44.3,-17.1 -7.3,0 -12.4,-2.2 -17.4,-7.3 -18.8,-19.3 -38,-38.2 -57.2,-57.1 -2,-2 -5.5,-4.2 -7.7,-3.7 -1.9,0.4 -4,4.5 -4.2,7.2 -3.4,33.3 12.8,57.1 44.5,64.7 6.9,1.7 8.3,4.8 7.6,10.8 -2.1,17 -9.9,30.9 -24.3,39.9 -14.2,8.9 -29,16.8 -44.2,23.8 -1.9,0.9 -3.7,1.7 -5.5,2.6 v -144 c 0,-4.4 3.6,-8 8,-8 h 56.8 c 2,-6.2 4.2,-12 7.5,-17.6 1.6,-2.7 4.8,-5.7 4.8,-5.9 h -78.5 c -12.2,0 -22.1,9.9 -22.1,22.1 v 167.5 c 0,0 0,0 0,0 v 25.5 c 0,12.2 9.9,22.1 22.1,22.1 h 95.3 9.9 87.9 c 12.2,0 22.1,-9.9 22.1,-22.1 V 415.3 c 0.1,-12.2 -9.8,-22.2 -22.1,-22.2 z m -55.2,125.5 c 1.5,-5.8 8.2,-3.5 14.4,2.8 5,5 6.9,6.7 6.7,9.3 -0.4,6 -8.2,4.1 -14,2.6 -5.8,-1.5 -8.6,-8.9 -7.1,-14.7 z"
   id="path8"
   style="fill:#000000;fill-opacity:1;stroke-width:1" />
	</g>
</g>
</svg>
