<?xml version="1.0" encoding="UTF-8" standalone="no"?>
<!-- Created with Inkscape (http://www.inkscape.org/) -->

<svg
   version="1.1"
   id="svg2"
   width="16"
   height="16.000002"
   viewBox="0 0 16 16.000002"
   xmlns="http://www.w3.org/2000/svg"
   xmlns:svg="http://www.w3.org/2000/svg">
  <defs
     id="defs6" />
  <g
     id="g8"
     transform="matrix(0.74999999,0,0,0.74999999,-39.836727,-39.597497)"
     style="fill:#ffffff;fill-opacity:1;stroke-width:1.33334">
    <path
       style="fill:#ffffff;fill-opacity:1;stroke-width:1.33334"
       d="m 68.738856,69.343647 -2.157986,-2.16428 -1.471034,1.423976 c -1.555499,1.505737 -2.250106,1.842821 -2.986567,1.449345 -0.702629,-0.375401 -1.296258,-1.958702 -1.401887,-3.739044 l -0.09346,-1.575262 -1.713228,-1.701452 c -1.592039,-1.581096 -1.737318,-1.6774 -2.053815,-1.361437 -0.424346,0.423629 -0.601521,0.426489 -0.943415,0.01523 -0.319785,-0.384667 -0.139094,-0.740419 1.27503,-2.510316 1.164637,-1.457641 4.069076,-3.793632 4.619205,-3.715149 0.54479,0.07772 0.660588,0.784519 0.185367,1.131423 -0.349233,0.254934 -0.245243,0.407983 1.378839,2.029325 l 1.75656,1.753596 1.540376,0.05749 c 1.743892,0.06508 3.319746,0.648257 3.707814,1.372146 0.394141,0.735219 0.05649,1.428654 -1.451794,2.981528 l -1.426383,1.468552 2.167938,2.154344 c 1.521395,1.511855 2.150673,2.277262 2.110045,2.56651 -0.132755,0.945149 -0.854822,0.556645 -3.041606,-1.63652 z m -2.587545,-3.624061 c 2.648988,-2.650818 3.239377,-3.342244 2.990853,-3.502691 -0.588728,-0.380082 -1.759884,-0.611263 -3.102452,-0.612407 l -1.347775,-0.0011 -1.335846,-1.355232 c -0.734718,-0.745383 -1.671162,-1.623873 -2.080989,-1.952207 l -0.74514,-0.596969 -1.267576,1.145156 c -0.697168,0.629835 -1.267577,1.226602 -1.267577,1.326149 0,0.09955 0.858524,1.07751 1.907833,2.173254 l 1.907831,1.99226 0.131094,1.776575 c 0.119306,1.616831 0.468217,2.910039 0.785136,2.910039 0.06826,0 1.609333,-1.486253 3.424608,-3.302783 z"
       id="path1085" />
  </g>
  <path
     style="fill:#ffffff;fill-opacity:1;stroke:none;stroke-width:1.8;paint-order:stroke fill markers;stroke-opacity:1"
     d="M 7.0975538,12.056194 C 6.9969978,11.945081 6.8588517,11.508064 6.7724771,11.027834 6.7049087,10.652163 6.6527427,10.142353 6.5572895,8.9248399 L 6.5348571,8.6387137 5.7134402,7.7806205 C 4.8331105,6.8609845 3.9561424,5.9052435 3.7811188,5.6747298 L 3.6735148,5.5330109 3.7505869,5.4268156 C 3.859487,5.2767656 4.4095209,4.7429924 5.0315174,4.1837535 L 5.5624384,3.7064009 5.9438538,4.0152821 C 6.432764,4.4112156 7.1436537,5.0759197 8.0091387,5.9463879 l 0.6861342,0.6900848 0.7822807,1.068e-4 c 0.8676974,1.183e-4 1.2987664,0.040873 1.8154714,0.171637 0.38105,0.096434 0.740349,0.2596586 0.740349,0.3363303 0,0.094091 -0.218276,0.3909434 -0.579938,0.788708 -0.8477,0.9323207 -4.1493939,4.1954712 -4.2450263,4.1954712 -0.024869,0 -0.074754,-0.03264 -0.1108559,-0.07253 z"
     id="path6845" />
</svg>
