<?xml version="1.0" encoding="UTF-8" standalone="no"?>
<!-- Created with Inkscape (http://www.inkscape.org/) -->

<svg
   version="1.1"
   id="svg2"
   width="64"
   height="64"
   viewBox="0 0 64 64"
   xmlns="http://www.w3.org/2000/svg"
   xmlns:svg="http://www.w3.org/2000/svg">
  <defs
     id="defs6" />
  <g
     id="g8"
     style="display:inline">
    <g
       id="g8133"
       transform="translate(0.5)">
      <path
         style="fill:#f7d5a4"
         d="M 0.11507256,38.302045 0.04603735,12.5 1.3117353,6.5111338 2.5774333,0.5222676 7.7887166,0.43582098 13,0.34937437 13.015313,1.4246872 13.030626,2.5 13.803459,1.2837701 14.576292,0.06754013 17.217899,1.4380224 19.859506,2.8085046 20.398368,1.4042523 20.93723,0 h 2.330497 2.330496 L 26.799112,3.320998 28,6.6419959 28.078947,8.570998 28.157895,10.5 28.734526,9 29.311157,7.5 31.699531,4.3479842 34.087905,1.1959684 32.793953,0.63411544 31.5,0.07226244 35,0.28613122 38.5,0.5 39.286541,14 l 0.786541,13.5 -0.531759,5 -0.53176,5 -0.596247,2.618636 -0.596247,2.618635 2.696238,0.676713 2.696238,0.676713 -0.532404,2.035915 -0.532404,2.035916 3.177632,1.259446 L 48.5,50.68142 56.25,53.442165 64,56.202909 V 60.101455 64 L 52.75,63.968197 41.5,63.936393 39.55887,62.468197 37.617741,61 H 36.30887 35 v 0.926676 0.926676 l 1.75,0.383076 1.75,0.383076 L 19.342054,63.861797 0.18410776,64.10409 Z M 38,3 V 1 H 36.5 35 v 1.4166667 1.4166666 l 1.25,0.504386 1.25,0.504386 0.25,0.078947 L 38,5 Z"
         id="path8141" />
      <path
         style="fill:#d09569"
         d="M 0.79173777,63.323807 2.0834755,62.805508 0.99310925,61.491697 -0.09725703,60.177886 0.33556345,34.838943 0.76838393,9.5 1.4896278,5.7840073 2.2108717,2.0680146 3.4975858,3.3547286 4.7842998,4.6414427 5.2091495,6.5707214 5.6339991,8.5 6.4048974,4.25 7.1757957,0 H 7.5408448 7.905894 L 10.452947,1.160515 13,2.32103 13.015313,3.410515 13.030626,4.5 13.897279,3.131966 14.763932,1.763932 16.881966,3.881966 19,6 V 5 4 h 2.09362 2.093619 l 0.523012,2 0.523012,2 H 25.116631 26 l 0.03041,-1.75 0.03041,-1.75 1.023714,1.7579198 1.023714,1.7579199 -0.570435,0.9229818 -0.570434,0.9229819 0.911527,0.5633546 0.911527,0.563355 L 29.418754,9.3511284 30.047077,7.7137439 30.6549,8.3215667 31.262723,8.9293896 33.353868,7.4646948 35.445012,6 h 0.70417 0.70417 L 37.310674,7.75 37.767997,9.5 37.883999,5.319551 38,1.1391019 35.75,0.65574636 33.5,0.17239081 36,0.33619541 38.5,0.5 l 0.102506,8 0.102506,8 -0.782221,-2 -0.78222,-2 -0.07029,3.190983 L 37,18.881966 36,19.5 35,20.118034 v 2.063428 2.063427 L 36.5,23 38,21.755111 38.09968,24.627555 38.19936,27.5 39,25 39.80064,22.5 39.83004,27 39.85943,31.5 39,29.5 38.140571,27.5 38.070285,28.718615 38,29.93723 36.5,29.361626 35,28.786022 V 29.893011 31 l 1.25,0.03041 1.25,0.03041 -1.911141,1.109461 -1.911141,1.10946 L 32.338859,31.44874 31,29.617741 v 0.541906 0.541906 l 1.113667,3.194668 1.113667,3.194668 1.136333,-0.544801 L 35.5,36.001286 37.25,35.384012 39,34.766737 39.078947,33.133369 39.157895,31.5 l 0.473361,1.156926 0.473361,1.156926 -1.531352,3.665043 -1.531353,3.665042 L 36.020956,40.512952 35,39.881966 v 1.039965 1.039965 l 2.75,0.656939 2.75,0.65694 1.146765,0.89888 1.146766,0.89888 -0.484446,1.852524 -0.484446,1.852524 6.837681,2.243816 6.83768,2.243817 1,0.751419 1,0.75142 3.25,0.694928 3.25,0.694928 V 60.079455 64 H 53.368034 42.736068 L 39.418441,61.949593 36.100813,59.899187 34.050407,61.949593 32,64 15.75,63.921053 -0.5,63.842105 Z M 16.788897,44.75 17.822683,43.5 17.294764,40.75 16.766846,38 H 14.55009 12.333333 l -0.711717,0.711717 -0.711717,0.711717 2.295051,1.766047 L 15.5,42.955528 14.25,42.977764 13,43 v 1.5 1.5 h 1.377555 1.377556 z M 23.204232,40 h 1.040657 L 22.989766,38.487669 21.734643,36.975338 20.367321,38.110114 19,39.244889 v 0.984545 0.984544 L 20.581787,40.606989 22.163575,40 Z M 28,34.61481 V 33.22962 L 26.722926,30.192355 25.445852,27.15509 22.972926,29.037603 20.5,30.920115 l 2.361474,-0.60584 2.361475,-0.60584 -0.69093,3.145782 L 23.841089,36 H 25.920545 28 Z M 19.926114,33.589028 21.097117,32.178055 20.03961,31.52448 18.982103,30.870905 16.991051,31.50284 15,32.134775 V 33.567388 35 h 1.877555 1.877556 z m -5.514123,-2.19363 1.575567,-0.604601 -3.082436,-2.879427 -3.0824366,-2.879426 0.3649876,-1.094964 0.364988,-1.094964 2.691937,-1.633371 2.691937,-1.633371 3.402781,1.230462 3.402781,1.230461 1.725169,-0.66201 1.72517,-0.662009 L 25.584341,17.671706 24.976247,14.631234 23.30122,12.78035 21.626192,10.929466 20.434951,11.386588 19.24371,11.84371 18.217755,10.817755 17.1918,9.7917999 13.082863,10.486 8.9739271,11.180201 7.7896172,13.3401 6.6053073,15.5 6.6726853,21.228692 6.7400633,26.957384 5.8700316,26.419675 5,25.881966 v 1.52708 1.527079 l 2.75,1.4919 2.75,1.4919 1.168213,0.04004 L 12.836425,32 Z M 31.8,19.8 33,18.6 v -0.859017 -0.859017 l -0.88631,0.54777 -0.88631,0.547769 L 30.70731,15.988753 30.187239,14 h -0.986631 -0.98663 l -0.629664,1.640877 -0.629664,1.640878 0.590063,1.859122 L 28.134775,21 H 29.367388 30.6 Z"
         id="path8139" />
      <path
         style="fill:#9f6640"
         d="M 1.2452397,62.735828 2.5,61.847738 1.25,61.340536 0,60.833333 0.03180337,38.666667 0.06360674,16.5 1.5318034,14.55887 3,12.617741 3.0304087,14.05887 3.0608174,15.5 4.084531,13.74208 5.1082445,11.98416 4.485024,10.975768 3.8618034,9.9673762 2.9309017,10.542705 2,11.118034 2.0153128,9.309017 2.0306255,7.5 2.8894816,6.1445821 3.7483376,4.7891643 5.3313119,7.9623115 6.9142863,11.135459 6.0909768,15.54242 5.2676673,19.949381 5.7504108,22.474691 6.2331543,25 H 5.1165772 4 L 3.9366137,26.75 3.8732274,28.5 2.9211522,26.121093 1.9690769,23.742186 3.1421568,22.328712 4.3152367,20.915237 3.2569553,19.856955 2.1986738,18.798674 1.5134956,20.957479 0.82831743,23.116284 1.507843,28.057025 l 0.6795255,4.940741 1.0521588,0.65027 1.0521588,0.65027 L 3.626791,31.649153 2.9618959,29 h 0.9516644 0.9516644 l 0.6227867,1.962227 0.6227868,1.962228 -1.1016434,2.058439 -1.1016433,2.058439 0.7007527,1.133842 0.7007528,1.133842 -1.2616424,-0.779738 -1.2616425,-0.779738 0.7418696,2.37523 0.7418696,2.375229 3.9158527,4.699203 3.915853,4.699202 1.35907,-0.521524 1.35907,-0.521524 0.612379,1.929437 0.61238,1.929437 L 18.772038,54.22292 21.5,53.73161 22.75,52.74336 24,51.755111 V 50.877555 50 h -1.428571 -1.428572 l -1.5,1.5 -1.5,1.5 H 17.665514 17.18817 L 18.344085,50.498495 19.5,47.996989 l 1.850663,-0.597831 1.850663,-0.597832 -1.077034,-1.077034 -1.077035,-1.077035 -2.029759,1.836908 -2.02976,1.836907 -0.599929,-0.59993 -0.59993,-0.59993 2.560606,-2.560606 L 20.909091,42 H 22.954545 25 v -1.311439 -1.311438 l -2.144449,-2.301795 -2.144448,-2.301796 2.394448,0.771974 2.394449,0.771973 3,0.120407 3,0.120407 1.25,0.77987 L 34,38.118034 33.96959,39.309017 33.939183,40.5 32.888869,38.694549 31.838556,36.889098 30.419278,38.066993 29,39.244889 V 40.622445 42 l 3.25,0.01365 3.25,0.01365 2.271075,0.608488 2.271076,0.608488 -1.163576,1.402024 -1.163576,1.402023 0.724261,0.724262 0.724262,0.724261 1.418239,-1.939557 L 42,43.617741 V 46.30887 49 l -0.25,0.58102 -0.25,0.581021 2.5,1.383544 2.5,1.383544 0.809017,0.03544 L 48.118034,53 47.515757,52.025495 46.91348,51.050991 l 7.577214,2.671149 7.577214,2.671149 -2.283954,1.26792 -2.283954,1.26792 2,0.19297 2,0.192969 1.25,-0.04642 1.25,-0.04642 v 2.388889 L 64,64 53.75,63.996262 43.5,63.992524 40.22583,61.996262 36.951661,60 H 35.47583 34 v 1.420545 1.420544 L 31.25,63.440613 28.5,64.040137 14.24524,63.832028 -0.00952065,63.623918 Z M 45.664167,54.567217 45.06277,53 h -2.090402 -2.090402 l 0.714717,1.25 0.714717,1.25 1.001918,1.292382 1.001919,1.292381 0.975164,-0.975164 0.975164,-0.975164 z M 33.47432,53.04966 35,50.09932 V 49.54966 49 h -0.784392 -0.784393 l -1.689257,2.859684 -1.689257,2.859684 0.640316,0.640316 L 31.333333,56 h 0.307654 0.307653 z M 28.5,52 V 50.666667 L 27.25,50.25 26,49.833333 V 52 54.166667 L 27.25,53.75 28.5,53.333333 Z M 9,39.059017 v -1.940983 l 1.068174,-0.660168 1.068173,-0.660167 -0.536789,-1.39885 L 10.06277,33 h 0.534356 0.534357 L 13.065741,34.035184 15,35.070368 v 0.897428 0.897429 L 13,37.5 11,38.134775 V 39.567388 41 H 10 9 Z M 31.562097,29.725289 29.624194,27.131686 28.343901,28.815843 27.063607,30.5 27.031803,28.809017 27,27.118034 l -0.930887,-0.57532 -0.930887,-0.57532 -2.742641,2.541794 -2.74264,2.541794 L 18.576472,30.697163 17.5,30.343344 17.180449,28.171672 16.860898,26 14.180449,25.968197 11.5,25.936393 13.25,24.607954 15,23.279515 V 21.639757 20 h 0.846362 0.846362 l 3.207142,1.599933 3.207142,1.599933 3.946496,-0.376359 L 31,22.447148 v 0.907269 0.907268 l 3.581203,-0.58115 3.581203,-0.581149 -1.098456,1.323559 -1.098456,1.323559 0.690862,1.800357 0.690861,1.800356 L 35.735914,28.728902 34.12461,28.110587 33.812305,30.214739 33.5,32.318892 Z m 1.988696,-9.516248 0.62611,-3.29096 L 32.838451,15.298385 31.5,13.678689 33.75,15.079891 36,16.481094 35.964565,17.490547 35.929129,18.5 34.426906,21 32.924682,23.5 Z M 24.657767,11.540512 22.815535,10.14463 18.907767,9.4844174 15,8.8242043 V 6.7896575 4.7551106 L 16.662621,6.1275553 18.325243,7.5 18.759867,6.2082622 19.194492,4.9165245 20.597246,6.0807069 22,7.2448894 v -0.69917 -0.69917 L 24.6245,8.965591 27.249001,12.084632 29.1245,10.387329 31,8.6900249 31.0318,9.5950124 31.0636,10.5 l 1.372196,-1.8098409 1.372196,-1.8098408 0.665099,1.0761527 0.665099,1.0761528 0.817211,-0.5050645 0.817212,-0.5050646 0.491058,1.8778107 0.491059,1.8778106 -3.627369,0.599936 -3.627368,0.599937 -2,-0.0208 -2,-0.0208 -1.842233,-1.395881 z M 8.5119357,8.3690785 6.8849794,6.7421222 7.4424897,5.2892736 8,3.8364251 8.0760779,2.1682125 8.1521559,0.5 9.4650349,4 10.777914,7.5 11.825571,5 12.873227,2.5 12.936614,3.6682125 13,4.8364251 l 0.577559,1.5050952 0.577559,1.5050953 -2.008113,1.0747096 -2.008113,1.0747096 z"
         id="path8137" />
      <path
         style="fill:#503523"
         d="M 4.4652821,63.048476 2.4305643,62.223724 1.1327065,60.659902 -0.16515136,59.096079 0.16742432,57.527616 0.5,55.959153 4.3277697,58.568473 8.1555395,61.177794 8.4451099,60.838897 8.7346802,60.5 9.3980239,56.827981 10.061368,53.155961 9.1209259,52.574736 8.1804841,51.993511 6.449943,52.657582 4.7194018,53.321653 6.2876526,54.468386 7.8559034,55.615119 6.9745425,57.041191 6.0931816,58.467263 4.3877187,54.483631 2.6822558,50.5 2.7854282,48.664385 2.8886006,46.82877 1.6259293,47.313303 0.36325796,47.797835 0.13087349,43.308532 -0.10151098,38.819229 1.1191833,39.573659 2.3398775,40.32809 1.7059972,38.676224 1.0721168,37.024359 0.55850242,31.762179 0.04488802,26.5 l 1.40070438,4 1.4007043,4 0.076852,3.962148 L 3,42.424297 l 4.0968689,4.174405 4.0968691,4.174406 -0.04127,5.327975 -0.04127,5.327975 1.066846,1.285471 L 13.244889,64 9.8724447,63.936614 6.5,63.873227 Z m 9.0648619,-1.015167 -1.77344,-1.959629 1.57012,-3.78684 1.57012,-3.78684 0.05153,1.25 L 15,55 h 1.799199 1.7992 l -0.404515,3.464959 -0.404514,3.464959 -1.242893,1.03151 -1.242893,1.031509 z m 5.477105,-2.07295 0.738701,-4.039642 0.740629,-0.710358 L 21.227208,54.5 20.837178,58.75 20.447148,63 h 0.383459 0.383458 l 6.400212,-3.05454 6.400212,-3.054539 1.087137,0.671887 1.087137,0.671888 -3.1561,2.882652 L 29.876564,64 h -5.804008 -5.804008 z m 23.49983,3.051095 -0.610955,-0.988545 1.801938,0.536435 L 45.5,63.095779 43.631435,61.797889 41.76287,60.5 39.631435,58.755411 37.5,57.010821 l 3.729708,1.499531 3.729708,1.499531 0.584068,-2.327115 0.584069,-2.327115 3.430394,-1.240446 3.430394,-1.240447 1.112592,0.68762 L 55.213525,54.25 53.856763,55.109687 52.5,55.969374 49.75,55.984687 47,56 v 0.918213 0.918212 l -0.673609,1.755396 -0.673608,1.755396 1.647161,-0.632075 1.647162,-0.632075 0.776447,1.311833 0.776447,1.311833 1.5,0.567686 1.5,0.567686 -5.190983,0.07895 L 43.118034,64 Z m 11.799618,-0.431545 0.330887,-0.99266 4.931208,-0.26953 L 64.5,61.04819 61.277985,62.464054 58.05597,63.879918 56.01589,63.726244 53.97581,63.572569 Z M 52.37246,58.793636 51.774282,57.825764 49.885761,58.319623 47.99724,58.813482 48.557637,57.906741 49.118034,57 h 2.506724 2.506725 l 2.041618,-1.092641 2.041618,-1.09264 0.800662,0.84264 0.800663,0.842641 -3.422703,1.630754 -3.422703,1.630755 z M 22.325184,55.328243 22.530543,52.656486 24.015272,52.165621 25.5,51.674757 24.127555,53.337379 22.755111,55 25.127555,55.116001 27.5,55.232003 25.75,55.689326 24,56.146648 V 57.073324 58 H 23.059913 22.119826 Z M 33.638374,53.5 34.213978,52 h 1.333994 1.333994 l 0.553273,0.895215 0.553274,0.895215 -1.576044,0.604785 L 34.836425,55 H 33.949597 33.06277 Z M 29,51.622445 V 50 L 27.75,49.879165 26.5,49.75833 24.25,49.742063 22,49.725796 v -0.755909 -0.755909 l 1.667217,-0.639772 1.667218,-0.639771 1.008989,1.008989 1.008989,1.008989 1.419637,-1.178194 1.419636,-1.178194 L 25.845843,45.473181 21.5,44.350337 19,45.82997 16.5,47.309603 18.404988,45.154802 20.309975,43 h 2.285996 2.285995 L 25.487227,42.020667 26.092489,41.041333 25.01106,39.020667 23.929632,37 h 3.709498 3.709498 l -2.249519,2.394504 -2.24952,2.394503 0.852219,0.5267 0.852219,0.526701 3.804013,-0.353546 3.804012,-0.353546 -0.592367,1.543683 -0.592366,1.543682 1.460413,-0.560413 1.460413,-0.560413 -0.556061,1.449073 L 36.786022,47 38.143011,47.118483 39.5,47.236965 40.856064,47.050289 42.212129,46.863613 41.772873,48.181807 41.333616,49.5 38.600607,49.547394 35.867599,49.594787 35.374782,48.797394 34.881966,48 H 33.440983 32 v 1.377555 1.377556 L 30.5,52 29,53.244889 Z M 31.565728,29.127104 30.080096,26.254208 27.790048,25.642709 25.5,25.03121 l -1,1.321052 -1,1.321052 -2.184259,1.163343 L 19.131483,30 H 18.565741 18 v -2 -2 h -2 -2 v -1 -1 h 1 1 V 22.5 21 h 0.532119 0.532118 l 3.663683,1.530785 3.663684,1.530784 6.263087,0.185607 6.263087,0.185606 -1.087004,0.671806 -1.087005,0.671805 0.687133,1.111804 L 36.118034,28 h -1.465397 -1.465398 l 0.523012,2 0.523012,2 H 33.642312 33.05136 Z M 0.0633863,20.831787 0,18.163575 0.6069888,16.581787 1.2139776,15 2.3569888,15.000706 3.5,15.001412 3.6438013,17.494089 3.7876026,19.986765 2.8853428,19.429138 1.9830829,18.871511 1.0549277,21.185755 0.1267726,23.5 Z"
         id="path8135" />
    </g>
  </g>
</svg>
